<?xml version="1.0" standalone="no"?><!DOCTYPE svg PUBLIC "-//W3C//DTD SVG 1.1//EN" "http://www.w3.org/Graphics/SVG/1.1/DTD/svg11.dtd"><svg t="1683916670107" class="icon" viewBox="0 0 1024 1024" version="1.1" xmlns="http://www.w3.org/2000/svg" p-id="8723" width="16" height="16" xmlns:xlink="http://www.w3.org/1999/xlink"><path d="M667.766154 496.443077l31.350154-33.969231c2.264615-2.284308 4.371692-4.568615 4.371692-6.852923 0-2.107077-2.264615-6.695385-4.548923-8.96l-118.528-119.965538c-6.656-4.568615-15.576615-4.568615-20.125539 0l-31.350153 31.66523 138.830769 138.06277z" fill="#60C66A" p-id="8724"></path><path d="M512 1024c282.781538 0 512-229.218462 512-512S794.781538 0 512 0 0 229.218462 0 512s229.218462 512 512 512z m99.918769-731.254154l118.547693 119.965539c11.185231 11.244308 17.841231 24.812308 17.84123 40.62523 0 15.832615-6.656 29.538462-17.860923 40.802462L502.153846 722.806154c-6.656 8.96-15.576615 13.528615-26.781538 15.812923L309.76 768h-6.656c-13.489231 0-24.694154-4.568615-33.614769-13.548308-8.940308-9.137231-13.489231-24.969846-13.489231-38.518154l29.243077-167.443692c2.087385-11.264 6.656-20.224 15.576615-27.076923l228.292923-228.667077c22.409846-22.685538 60.396308-22.685538 82.806154 0z" fill="#60C66A" p-id="8725"></path></svg>